<svg xmlns="http://www.w3.org/2000/svg" viewBox="0 0 1200 675">
  <defs>
    <linearGradient id="bg" x1="0%" y1="0%" x2="100%" y2="100%">
      <stop offset="0%" style="stop-color:#f5f3ff;stop-opacity:1" />
      <stop offset="100%" style="stop-color:#ede9fe;stop-opacity:1" />
    </linearGradient>
  </defs>
  <rect width="1200" height="675" fill="url(#bg)" rx="12"/>
  <!-- Deploy icon -->
  <g transform="translate(500, 310)" opacity="0.18">
    <rect x="0" y="0" width="80" height="80" rx="12" fill="#8b5cf6"/>
    <path d="M25 40 L55 40 L55 30 L40 15 L25 30 Z" fill="white"/>
    <rect x="25" y="45" width="30" height="10" rx="2" fill="white" opacity="0.6"/>
    <rect x="25" y="60" width="30" height="10" rx="2" fill="white" opacity="0.4"/>
  </g>
  <!-- Title -->
  <text x="600" y="175" font-family="system-ui, -apple-system, sans-serif" font-size="48" font-weight="800" fill="#3b0764" text-anchor="middle" letter-spacing="-1">Coolify v5 Review</text>
  <text x="600" y="220" font-family="system-ui, -apple-system, sans-serif" font-size="24" fill="#8b5cf6" text-anchor="middle" font-weight="600">The Self-Hosted PaaS in 2026</text>
  <!-- Bottom -->
  <text x="600" y="520" font-family="system-ui, -apple-system, sans-serif" font-size="18" fill="#7c6f94" text-anchor="middle">Deploy apps · Manage servers · Own your infrastructure</text>
  <!-- Tags -->
  <g transform="translate(300, 560)">
    <rect x="0" y="0" width="120" height="32" rx="16" fill="#8b5cf6" opacity="0.12"/>
    <text x="60" y="21" font-family="system-ui, sans-serif" font-size="13" fill="#8b5cf6" text-anchor="middle" font-weight="600">Self-Hosted</text>
  </g>
  <g transform="translate(440, 560)">
    <rect x="0" y="0" width="100" height="32" rx="16" fill="#8b5cf6" opacity="0.12"/>
    <text x="50" y="21" font-family="system-ui, sans-serif" font-size="13" fill="#8b5cf6" text-anchor="middle" font-weight="600">PaaS</text>
  </g>
  <g transform="translate(560, 560)">
    <rect x="0" y="0" width="100" height="32" rx="16" fill="#8b5cf6" opacity="0.12"/>
    <text x="50" y="21" font-family="system-ui, sans-serif" font-size="13" fill="#8b5cf6" text-anchor="middle" font-weight="600">Docker</text>
  </g>
  <g transform="translate(680, 560)">
    <rect x="0" y="0" width="120" height="32" rx="16" fill="#8b5cf6" opacity="0.12"/>
    <text x="60" y="21" font-family="system-ui, sans-serif" font-size="13" fill="#8b5cf6" text-anchor="middle" font-weight="600">Heroku Alt</text>
  </g>
</svg>
