<?xml version="1.0" encoding="UTF-8"?>
<svg width="1200" height="675" viewBox="0 0 1200 675" fill="none" xmlns="http://www.w3.org/2000/svg">
  <rect width="1200" height="675" rx="24" fill="#F0F4FF"/>
  <circle cx="200" cy="120" r="80" fill="#D4E0FF" opacity="0.6"/>
  <circle cx="1050" cy="550" r="120" fill="#E8EDFF" opacity="0.5"/>
  <circle cx="950" cy="150" r="60" fill="#DCE5FF" opacity="0.4"/>
  
  <!-- Left decorative chart bars -->
  <rect x="80" y="380" width="28" height="120" rx="4" fill="#C5D5FF"/>
  <rect x="124" y="320" width="28" height="180" rx="4" fill="#A0B8FF"/>
  <rect x="168" y="280" width="28" height="220" rx="4" fill="#7B9BFF"/>
  <rect x="212" y="200" width="28" height="300" rx="4" fill="#557EFF"/>
  
  <!-- Right decorative data points -->
  <circle cx="920" cy="400" r="10" fill="#7B9BFF" opacity="0.5"/>
  <circle cx="980" cy="360" r="8" fill="#A0B8FF" opacity="0.5"/>
  <circle cx="1040" cy="420" r="12" fill="#557EFF" opacity="0.3"/>
  <circle cx="1100" cy="340" r="6" fill="#C5D5FF" opacity="0.6"/>
  
  <!-- Center decorative line graph -->
  <polyline points="700,480 760,440 820,460 880,380 940,350" 
    stroke="#557EFF" stroke-width="5" stroke-linecap="round" stroke-linejoin="round" fill="none" opacity="0.4"/>
  
  <!-- Main text -->
  <text x="600" y="315" text-anchor="middle" font-family="system-ui, -apple-system, sans-serif" font-weight="800" font-size="64" fill="#1E3A8A">
    Observability
  </text>
  <text x="600" y="395" text-anchor="middle" font-family="system-ui, -apple-system, sans-serif" font-weight="800" font-size="64" fill="#1E3A8A">
    Without The Bill
  </text>
  
  <!-- Accent underline -->
  <rect x="360" y="420" width="480" height="6" rx="3" fill="#557EFF" opacity="0.5"/>
  
  <!-- Traceway dot -->
  <circle cx="498" cy="225" r="8" fill="#557EFF"/>
</svg>
