<svg xmlns="http://www.w3.org/2000/svg" viewBox="0 0 1600 900">
  <defs>
    <linearGradient id="bg2" x1="0%" y1="0%" x2="100%" y2="100%">
      <stop offset="0%" style="stop-color:#06b6d4"/>
      <stop offset="100%" style="stop-color:#3b82f6"/>
    </linearGradient>
  </defs>
  <rect width="1600" height="900" fill="url(#bg2)"/>
  <!-- Page representation -->
  <rect x="550" y="100" width="500" height="600" rx="15" fill="white" opacity="0.95"/>
  <!-- Nav items -->
  <rect x="590" y="130" width="60" height="25" rx="4" fill="#e5e7eb"/>
  <rect x="670" y="130" width="60" height="25" rx="4" fill="#e5e7eb"/>
  <rect x="750" y="130" width="60" height="25" rx="4" fill="#3b82f6"/>
  <rect x="830" y="130" width="60" height="25" rx="4" fill="#e5e7eb"/>
  <!-- Sections -->
  <rect x="590" y="180" width="420" height="100" rx="8" fill="#f3f4f6"/>
  <rect x="590" y="300" width="420" height="100" rx="8" fill="#dbeafe"/>
  <rect x="590" y="420" width="420" height="100" rx="8" fill="#f3f4f6"/>
  <rect x="590" y="540" width="420" height="100" rx="8" fill="#f3f4f6"/>
  <!-- Scroll arrow -->
  <path d="M800 750 L750 800 L770 800 L770 850 L830 850 L830 800 L850 800 Z" fill="white" opacity="0.9"/>
  <!-- Title -->
  <text x="800" y="780" font-family="Arial, sans-serif" font-size="56" fill="white" text-anchor="middle" font-weight="bold">Smooth Scroll</text>
</svg>
