<svg xmlns="http://www.w3.org/2000/svg" viewBox="0 0 1600 900">
  <defs>
    <linearGradient id="bg4" x1="0%" y1="0%" x2="100%" y2="100%">
      <stop offset="0%" style="stop-color:#1e293b"/>
      <stop offset="100%" style="stop-color:#334155"/>
    </linearGradient>
  </defs>
  <rect width="1600" height="900" fill="url(#bg4)"/>
  <!-- Light mode card -->
  <rect x="200" y="200" width="500" height="450" rx="20" fill="#ffffff"/>
  <circle cx="450" y="280" r="30" fill="#fbbf24"/>
  <rect x="280" y="340" width="340" height="16" rx="4" fill="#374151"/>
  <rect x="300" y="380" width="300" height="12" rx="4" fill="#9ca3af"/>
  <rect x="300" y="410" width="280" height="12" rx="4" fill="#9ca3af"/>
  <rect x="280" y="460" width="340" height="100" rx="8" fill="#f3f4f6"/>
  <rect x="280" y="580" width="150" height="40" rx="8" fill="#3b82f6"/>
  <!-- Dark mode card -->
  <rect x="900" y="200" width="500" height="450" rx="20" fill="#1e293b"/>
  <circle cx="1150" y="280" r="30" fill="#94a3b8"/>
  <path d="M1140 260 Q1170 260 1170 290 Q1170 320 1140 320 Q1120 320 1120 290 Q1120 260 1140 260" fill="#1e293b"/>
  <rect x="980" y="340" width="340" height="16" rx="4" fill="#e2e8f0"/>
  <rect x="1000" y="380" width="300" height="12" rx="4" fill="#64748b"/>
  <rect x="1000" y="410" width="280" height="12" rx="4" fill="#64748b"/>
  <rect x="980" y="460" width="340" height="100" rx="8" fill="#334155"/>
  <rect x="980" y="580" width="150" height="40" rx="8" fill="#60a5fa"/>
  <!-- Toggle switch in center -->
  <rect x="720" y="380" width="160" height="80" rx="40" fill="#3b82f6"/>
  <circle cx="840" cy="420" r="32" fill="white"/>
  <!-- Arrow -->
  <path d="M650 420 L700 420" stroke="white" stroke-width="4" fill="none"/>
  <polygon points="690,410 710,420 690,430" fill="white"/>
  <!-- Title -->
  <text x="800" y="780" font-family="Arial, sans-serif" font-size="64" fill="white" text-anchor="middle" font-weight="bold">Dark Mode</text>
</svg>
