<svg xmlns="http://www.w3.org/2000/svg" viewBox="0 0 1280 720">
  <defs>
    <linearGradient id="bgGradient" x1="0%" y1="0%" x2="100%" y2="100%">
      <stop offset="0%" style="stop-color:#1e3a5f;stop-opacity:1" />
      <stop offset="100%" style="stop-color:#0f2744;stop-opacity:1" />
    </linearGradient>
    <linearGradient id="accentGradient" x1="0%" y1="0%" x2="100%" y2="0%">
      <stop offset="0%" style="stop-color:#ff6b35;stop-opacity:1" />
      <stop offset="100%" style="stop-color:#f7931e;stop-opacity:1" />
    </linearGradient>
  </defs>
  
  <!-- Background -->
  <rect width="1280" height="720" fill="url(#bgGradient)"/>
  
  <!-- Decorative circles -->
  <circle cx="150" cy="600" r="200" fill="#2a4a6e" opacity="0.3"/>
  <circle cx="1150" cy="120" r="180" fill="#2a4a6e" opacity="0.3"/>
  
  <!-- Lobster icon (simplified) -->
  <g transform="translate(540, 180)">
    <ellipse cx="100" cy="80" rx="80" ry="50" fill="#ff6b35"/>
    <ellipse cx="100" cy="80" rx="65" ry="40" fill="#ff8c5a"/>
    <!-- Eyes -->
    <circle cx="75" cy="65" r="12" fill="#fff"/>
    <circle cx="125" cy="65" r="12" fill="#fff"/>
    <circle cx="75" cy="65" r="6" fill="#1e3a5f"/>
    <circle cx="125" cy="65" r="6" fill="#1e3a5f"/>
    <!-- Antennae -->
    <path d="M60 45 Q30 10 20 30" stroke="#ff6b35" stroke-width="6" fill="none"/>
    <path d="M140 45 Q170 10 180 30" stroke="#ff6b35" stroke-width="6" fill="none"/>
    <!-- Claws -->
    <ellipse cx="20" cy="100" rx="35" ry="25" fill="#ff6b35"/>
    <ellipse cx="180" cy="100" rx="35" ry="25" fill="#ff6b35"/>
  </g>
  
  <!-- Main title -->
  <text x="640" y="420" font-family="system-ui, -apple-system, sans-serif" font-size="72" font-weight="700" fill="#ffffff" text-anchor="middle">Clawdbot Setup</text>
  
  <!-- Subtitle -->
  <text x="640" y="500" font-family="system-ui, -apple-system, sans-serif" font-size="36" font-weight="400" fill="#94b8d4" text-anchor="middle">24/7 AI Assistant</text>
  
  <!-- Bottom accent bar -->
  <rect x="440" y="560" width="400" height="6" rx="3" fill="url(#accentGradient)"/>
  
  <!-- Small icons representing platforms -->
  <g transform="translate(460, 620)" fill="#5a8ab8">
    <!-- Server icon -->
    <rect x="0" y="0" width="30" height="24" rx="3"/>
    <line x1="0" y1="8" x2="30" y2="8" stroke="#1e3a5f" stroke-width="2"/>
    <line x1="0" y1="16" x2="30" y2="16" stroke="#1e3a5f" stroke-width="2"/>
  </g>
  
  <g transform="translate(560, 620)" fill="#5a8ab8">
    <!-- Chat icon -->
    <path d="M0 4 Q0 0 4 0 L26 0 Q30 0 30 4 L30 18 Q30 22 26 22 L10 22 L4 28 L4 22 L4 22 Q0 22 0 18 Z"/>
  </g>
  
  <g transform="translate(660, 620)" fill="#5a8ab8">
    <!-- Brain/AI icon -->
    <circle cx="15" cy="12" r="12"/>
    <path d="M8 8 Q15 4 22 8" stroke="#1e3a5f" stroke-width="2" fill="none"/>
    <path d="M8 12 Q15 8 22 12" stroke="#1e3a5f" stroke-width="2" fill="none"/>
    <path d="M8 16 Q15 12 22 16" stroke="#1e3a5f" stroke-width="2" fill="none"/>
  </g>
  
  <g transform="translate(760, 620)" fill="#5a8ab8">
    <!-- Gear/settings icon -->
    <circle cx="15" cy="12" r="6" fill="#1e3a5f"/>
    <circle cx="15" cy="12" r="10" stroke="#5a8ab8" stroke-width="4" fill="none"/>
    <rect x="13" y="-2" width="4" height="6" fill="#5a8ab8"/>
    <rect x="13" y="20" width="4" height="6" fill="#5a8ab8"/>
    <rect x="-2" y="10" width="6" height="4" fill="#5a8ab8"/>
    <rect x="26" y="10" width="6" height="4" fill="#5a8ab8"/>
  </g>
</svg>
