<svg xmlns="http://www.w3.org/2000/svg" viewBox="0 0 1920 1080">
  <defs>
    <linearGradient id="bgGradient" x1="0%" y1="0%" x2="100%" y2="100%">
      <stop offset="0%" style="stop-color:#667eea;stop-opacity:1" />
      <stop offset="100%" style="stop-color:#764ba2;stop-opacity:1" />
    </linearGradient>
  </defs>
  
  <!-- Background -->
  <rect width="1920" height="1080" fill="url(#bgGradient)"/>
  
  <!-- Code brackets decoration -->
  <text x="200" y="300" font-family="monospace" font-size="180" fill="rgba(255,255,255,0.1)" font-weight="bold">&lt;/&gt;</text>
  <text x="1520" y="800" font-family="monospace" font-size="180" fill="rgba(255,255,255,0.1)" font-weight="bold">&lt;/&gt;</text>
  
  <!-- Main content -->
  <g transform="translate(960, 540)">
    <!-- Terminal window -->
    <rect x="-400" y="-180" width="800" height="360" rx="12" fill="rgba(0,0,0,0.3)" stroke="rgba(255,255,255,0.2)" stroke-width="2"/>
    
    <!-- Terminal dots -->
    <circle cx="-370" cy="-150" r="8" fill="#ff5f56"/>
    <circle cx="-340" cy="-150" r="8" fill="#ffbd2e"/>
    <circle cx="-310" cy="-150" r="8" fill="#27c93f"/>
    
    <!-- Amp Logo -->
    <g transform="translate(-142, -130) scale(4)">
      <path d="M3.41508 17.2983L7.88484 12.7653L9.51146 18.9412L11.8745 18.2949L9.52018 9.32758L0.69527 6.93747L0.066864 9.35199L6.13926 11.0015L1.68806 15.5279L3.41508 17.2983Z" fill="#F34E3F"/>
      <path d="M16.3044 12.0436L18.6675 11.3973L16.3132 2.43003L7.48824 0.0399246L6.85984 2.45444L14.312 4.47881L16.3044 12.0436Z" fill="#F34E3F"/>
      <path d="M12.9126 15.4902L15.2756 14.8439L12.9213 5.87659L4.09639 3.48648L3.46799 5.901L10.9201 7.92537L12.9126 15.4902Z" fill="#F34E3F"/>
      <path d="M30.0743 5.19107H30.1139L25.4343 16.4945H22.5195L28.4087 2.39039H31.7994L37.6886 16.4945H34.7539L30.0743 5.19107ZM33.8616 13.9759H26.3266L27.0405 11.5581H33.1478L33.8616 13.9759Z" fill="white"/>
      <path d="M39.4621 16.4945V5.43283H42.139V16.4945H39.4621ZM46.8582 10.3088C46.8582 9.39553 46.6996 8.73063 46.3823 8.3141C46.0651 7.8979 45.5957 7.68951 44.9745 7.68951C44.3927 7.68951 43.8641 7.86076 43.3882 8.20331C42.9123 8.54582 42.5386 9.00262 42.2679 9.57339C41.9968 10.1445 41.8614 10.7319 41.8614 11.3364L41.3062 8.75739C41.4515 8.09939 41.7058 7.49809 42.0696 6.95405C42.433 6.41005 42.9188 5.98377 43.527 5.67463C44.1349 5.36578 44.8422 5.21119 45.6487 5.21119C46.9177 5.21119 47.8859 5.61764 48.5536 6.43021C49.221 7.24307 49.555 8.36795 49.555 9.80511V16.4945H46.8582V10.3088ZM54.3139 10.3088C54.3139 9.44935 54.1385 8.79767 53.7884 8.35441C53.438 7.91115 52.9522 7.68951 52.331 7.68951C51.7361 7.68951 51.2073 7.86076 50.7447 8.20331C50.2818 8.54582 49.9283 8.99254 49.6838 9.54319C49.4391 10.0941 49.317 10.6851 49.317 11.3162L48.2661 8.61633C48.4644 7.97159 48.7881 7.39074 49.2377 6.87347C49.687 6.35653 50.2357 5.95012 50.8835 5.65449C51.531 5.35919 52.2582 5.21119 53.0647 5.21119C53.9105 5.21119 54.6277 5.396 55.2161 5.76531C55.8042 6.13491 56.2438 6.66193 56.5347 7.34696C56.8253 8.03202 56.971 8.85153 56.971 9.80512V16.4945H54.3139L54.3139 10.3088Z" fill="white"/>
      <path d="M59.1945 19.9601V5.43284H61.8714V6.72237C62.3339 6.22559 62.8891 5.84937 63.537 5.59406C64.1845 5.33904 64.8853 5.2112 65.6388 5.2112C66.6036 5.2112 67.4928 5.45994 68.3058 5.95672C69.1188 6.45381 69.7598 7.14234 70.2292 8.02194C70.6983 8.90189 70.9331 9.89925 70.9331 11.0141C70.9331 12.1289 70.6983 13.1231 70.2292 13.9961C69.7598 14.8694 69.1219 15.5443 68.3157 16.021C67.5092 16.4976 66.6036 16.7363 65.5992 16.7363C65.11 16.7363 64.6406 16.679 64.1913 16.565C63.7418 16.451 63.3188 16.2829 62.9223 16.0613C62.5257 15.8397 62.1753 15.561 61.8713 15.2251V19.9601H59.1945ZM65.1233 14.2781C65.7312 14.2781 66.2734 14.1405 66.7493 13.8651C67.2252 13.5899 67.5951 13.2036 67.8597 12.7065C68.124 12.2097 68.2563 11.6456 68.2563 11.014C68.2563 10.329 68.124 9.73459 67.8597 9.23087C67.5951 8.72715 67.2252 8.33771 66.7493 8.06224C66.2734 7.7871 65.7312 7.64918 65.1233 7.64918C64.4755 7.64918 63.9069 7.78364 63.418 8.05217C62.9288 8.32103 62.5487 8.70699 62.2779 9.21072C62.0068 9.71444 61.8714 10.2956 61.8714 10.9536C61.8714 11.6386 62.0068 12.233 62.2779 12.7368C62.5486 13.2405 62.9288 13.6233 63.418 13.8852C63.9069 14.1472 64.4755 14.2781 65.1233 14.2781Z" fill="white"/>
    </g>
    
    <!-- Title text -->
    <text x="0" y="20" text-anchor="middle" font-family="Arial, sans-serif" font-size="72" font-weight="bold" fill="white">
      Amp Code Free
    </text>
    
    <!-- Subtitle -->
    <text x="0" y="90" text-anchor="middle" font-family="Arial, sans-serif" font-size="42" fill="rgba(255,255,255,0.9)">
      AI Coding Agent
    </text>
    
    <!-- Command line -->
    <text x="-350" y="150" font-family="monospace" font-size="32" fill="#4ade80">$ amp --mode free</text>
    <rect x="-40" y="125" width="15" height="30" fill="#4ade80" opacity="0.7">
      <animate attributeName="opacity" values="0.7;0;0.7" dur="1s" repeatCount="indefinite"/>
    </rect>
  </g>
</svg>
