<svg xmlns="http://www.w3.org/2000/svg" viewBox="0 0 1200 675">
  <defs>
    <linearGradient id="bg" x1="0%" y1="0%" x2="100%" y2="100%">
      <stop offset="0%" style="stop-color:#f0fdf4"/>
      <stop offset="100%" style="stop-color:#dcfce7"/>
    </linearGradient>
    <linearGradient id="accent" x1="0%" y1="0%" x2="100%" y2="0%">
      <stop offset="0%" style="stop-color:#22c55e"/>
      <stop offset="100%" style="stop-color:#16a34a"/>
    </linearGradient>
    <linearGradient id="col1" x1="0%" y1="0%" x2="0%" y2="100%">
      <stop offset="0%" style="stop-color:#dbeafe"/>
      <stop offset="100%" style="stop-color:#bfdbfe"/>
    </linearGradient>
    <linearGradient id="col2" x1="0%" y1="0%" x2="0%" y2="100%">
      <stop offset="0%" style="stop-color:#fef9c3"/>
      <stop offset="100%" style="stop-color:#fde68a"/>
    </linearGradient>
    <linearGradient id="col3" x1="0%" y1="0%" x2="0%" y2="100%">
      <stop offset="0%" style="stop-color:#dcfce7"/>
      <stop offset="100%" style="stop-color:#bbf7d0"/>
    </linearGradient>
  </defs>
  <rect width="1200" height="675" fill="url(#bg)" rx="0"/>
  <!-- Subtle grid pattern -->
  <g opacity="0.08">
    <line x1="0" y1="0" x2="1200" y2="675" stroke="#16a34a" stroke-width="1"/>
    <line x1="1200" y1="0" x2="0" y2="675" stroke="#16a34a" stroke-width="1"/>
    <line x1="600" y1="0" x2="600" y2="675" stroke="#16a34a" stroke-width="1"/>
    <line x1="0" y1="337" x2="1200" y2="337" stroke="#16a34a" stroke-width="1"/>
  </g>
  <!-- Kanban board columns -->
  <!-- Column 1: Todo -->
  <rect x="380" y="180" width="130" height="315" rx="12" fill="url(#col1)" stroke="#93c5fd" stroke-width="2"/>
  <text x="445" y="210" font-family="system-ui, -apple-system, sans-serif" font-size="14" font-weight="700" fill="#1e40af" text-anchor="middle">TODO</text>
  <rect x="392" y="225" width="106" height="52" rx="8" fill="white" stroke="#cbd5e1" stroke-width="1"/>
  <text x="445" y="255" font-family="system-ui" font-size="11" fill="#475569" text-anchor="middle">Research API</text>
  <rect x="392" y="287" width="106" height="52" rx="8" fill="white" stroke="#cbd5e1" stroke-width="1"/>
  <text x="445" y="317" font-family="system-ui" font-size="11" fill="#475569" text-anchor="middle">Write tests</text>
  <rect x="392" y="349" width="106" height="52" rx="8" fill="white" stroke="#cbd5e1" stroke-width="1"/>
  <text x="445" y="379" font-family="system-ui" font-size="11" fill="#475569" text-anchor="middle">Update docs</text>
  <!-- Column 2: In Progress -->
  <rect x="535" y="180" width="130" height="315" rx="12" fill="url(#col2)" stroke="#fbbf24" stroke-width="2"/>
  <text x="600" y="210" font-family="system-ui, -apple-system, sans-serif" font-size="14" font-weight="700" fill="#92400e" text-anchor="middle">RUNNING</text>
  <rect x="547" y="225" width="106" height="52" rx="8" fill="white" stroke="#cbd5e1" stroke-width="1"/>
  <text x="600" y="255" font-family="system-ui" font-size="11" fill="#475569" text-anchor="middle">Build auth</text>
  <circle cx="560" cy="271" r="3" fill="#f59e0b"/>
  <!-- Column 3: Done -->
  <rect x="690" y="180" width="130" height="315" rx="12" fill="url(#col3)" stroke="#86efac" stroke-width="2"/>
  <text x="755" y="210" font-family="system-ui, -apple-system, sans-serif" font-size="14" font-weight="700" fill="#166534" text-anchor="middle">DONE</text>
  <rect x="702" y="225" width="106" height="52" rx="8" fill="white" stroke="#cbd5e1" stroke-width="1"/>
  <text x="755" y="255" font-family="system-ui" font-size="11" fill="#475569" text-anchor="middle">Setup CI/CD</text>
  <text x="720" y="248" font-family="system-ui" font-size="16" fill="#22c55e">&#10003;</text>
  <rect x="702" y="287" width="106" height="52" rx="8" fill="white" stroke="#cbd5e1" stroke-width="1"/>
  <text x="755" y="317" font-family="system-ui" font-size="11" fill="#475569" text-anchor="middle">Deploy staging</text>
  <text x="720" y="310" font-family="system-ui" font-size="16" fill="#22c55e">&#10003;</text>
  <!-- Title -->
  <text x="600" y="85" font-family="system-ui, -apple-system, sans-serif" font-size="42" font-weight="800" fill="#14532d" text-anchor="middle">Hermes Kanban</text>
  <text x="600" y="125" font-family="system-ui, -apple-system, sans-serif" font-size="22" font-weight="500" fill="#15803d" text-anchor="middle">Task Board Setup Guide</text>
  <!-- Bottom tagline -->
  <rect x="350" y="540" width="500" height="44" rx="22" fill="url(#accent)"/>
  <text x="600" y="568" font-family="system-ui, -apple-system, sans-serif" font-size="18" font-weight="600" fill="white" text-anchor="middle">Multi-Agent Task Orchestration</text>
</svg>
