<svg viewBox="0 0 1600 900" xmlns="http://www.w3.org/2000/svg">
  <defs>
    <!-- Gradient for background -->
    <linearGradient id="seaBlueGradient" x1="0%" y1="0%" x2="100%" y2="100%">
      <stop offset="0%" style="stop-color:#0ea5e9;stop-opacity:1" />
      <stop offset="50%" style="stop-color:#0284c7;stop-opacity:1" />
      <stop offset="100%" style="stop-color:#0369a1;stop-opacity:1" />
    </linearGradient>

    <!-- HTTPS wave pattern -->
    <pattern id="httpsPattern" patternUnits="userSpaceOnUse" width="80" height="40">
      <path d="M0,20 Q20,10 40,20 T80,20" stroke="#ffffff" stroke-width="2" fill="none" opacity="0.1"/>
      <path d="M0,25 Q20,15 40,25 T80,25" stroke="#ffffff" stroke-width="1" fill="none" opacity="0.05"/>
      <text x="40" y="35" text-anchor="middle" fill="#ffffff" font-size="8" opacity="0.3">🔒</text>
    </pattern>

    <!-- Web connectivity pattern -->
    <pattern id="webPattern" patternUnits="userSpaceOnUse" width="60" height="60">
      <circle cx="30" cy="30" r="2" fill="#ffffff" opacity="0.1"/>
      <circle cx="10" cy="15" r="1" fill="#ffffff" opacity="0.05"/>
      <circle cx="50" cy="45" r="1" fill="#ffffff" opacity="0.05"/>
      <line x1="15" y1="30" x2="45" y2="30" stroke="#ffffff" stroke-width="1" opacity="0.05"/>
      <line x1="30" y1="15" x2="30" y2="45" stroke="#ffffff" stroke-width="1" opacity="0.05"/>
    </pattern>

    <!-- Cloud gradient -->
    <radialGradient id="cloudGradient" cx="50%" cy="50%" r="50%">
      <stop offset="0%" style="stop-color:#ffffff;stop-opacity:0.3" />
      <stop offset="100%" style="stop-color:#ffffff;stop-opacity:0.1" />
    </radialGradient>
  </defs>

  <!-- Sea blue background -->
  <rect width="1600" height="900" fill="url(#seaBlueGradient)"/>

  <!-- HTTPS pattern overlay -->
  <rect width="1600" height="900" fill="url(#httpsPattern)" opacity="0.4"/>

  <!-- Web pattern overlay -->
  <rect width="1600" height="900" fill="url(#webPattern)" opacity="0.3"/>

  <!-- Internet Cloud -->
  <g transform="translate(700, 50)">
    <ellipse cx="100" cy="40" rx="120" ry="50" fill="url(#cloudGradient)"/>
    <ellipse cx="70" cy="35" rx="40" ry="20" fill="url(#cloudGradient)"/>
    <ellipse cx="130" cy="35" rx="40" ry="20" fill="url(#cloudGradient)"/>
    <ellipse cx="100" cy="20" rx="30" ry="15" fill="url(#cloudGradient)"/>

    <text x="100" y="45" text-anchor="middle" fill="#ffffff" font-family="Arial, sans-serif" font-size="18" font-weight="bold">Internet / Cloud</text>
    <text x="100" y="65" text-anchor="middle" fill="#e2e8f0" font-family="Arial, sans-serif" font-size="12">Global Access</text>
  </g>

  <!-- Central Nginx WebDAV Server -->
  <g transform="translate(650, 350)">
    <!-- Server base -->
    <rect x="0" y="0" width="300" height="200" fill="#0f172a" rx="20"/>
    <rect x="15" y="15" width="270" height="170" fill="#1e293b" rx="15"/>

    <!-- Nginx branding area -->
    <rect x="30" y="30" width="240" height="60" fill="#269900" rx="10"/>
    <text x="150" y="50" text-anchor="middle" fill="#ffffff" font-family="Arial, sans-serif" font-size="20" font-weight="bold">Nginx</text>
    <text x="150" y="70" text-anchor="middle" fill="#ffffff" font-family="Arial, sans-serif" font-size="14">WebDAV Server</text>

    <!-- Server details -->
    <rect x="30" y="100" width="240" height="40" fill="#374151" rx="8"/>
    <text x="150" y="115" text-anchor="middle" fill="#f1f5f9" font-family="Arial, sans-serif" font-size="14">webdav.example.com</text>
    <text x="150" y="130" text-anchor="middle" fill="#cbd5e1" font-family="Arial, sans-serif" font-size="12">HTTPS/SSL • Port 443</text>

    <!-- Status indicators -->
    <g transform="translate(30, 150)">
      <circle cx="30" cy="20" r="8" fill="#10b981"/>
      <text x="30" y="40" text-anchor="middle" fill="#ffffff" font-size="8">SSL</text>

      <circle cx="70" cy="20" r="8" fill="#10b981"/>
      <text x="70" y="40" text-anchor="middle" fill="#ffffff" font-size="8">Auth</text>

      <circle cx="110" cy="20" r="8" fill="#10b981"/>
      <text x="110" y="40" text-anchor="middle" fill="#ffffff" font-size="8">DAV</text>

      <circle cx="150" cy="20" r="8" fill="#f59e0b"/>
      <text x="150" y="40" text-anchor="middle" fill="#ffffff" font-size="8">Load</text>

      <circle cx="190" cy="20" r="8" fill="#10b981"/>
      <text x="190" y="40" text-anchor="middle" fill="#ffffff" font-size="8">HTTP/2</text>
    </g>

    <!-- File system representation -->
    <rect x="280" y="30" width="15" height="140" fill="#6b7280" rx="3"/>
    <rect x="285" y="40" width="25" height="8" fill="#374151" rx="2"/>
    <rect x="285" y="55" width="25" height="8" fill="#374151" rx="2"/>
    <rect x="285" y="70" width="25" height="8" fill="#374151" rx="2"/>
    <rect x="285" y="85" width="25" height="8" fill="#374151" rx="2"/>
  </g>

  <!-- Web Browser Access (top left) -->
  <g transform="translate(100, 150)">
    <!-- Browser window -->
    <rect x="0" y="0" width="200" height="140" fill="#374151" rx="12"/>
    <rect x="8" y="8" width="184" height="124" fill="#ffffff" rx="8"/>

    <!-- Browser tab bar -->
    <rect x="8" y="8" width="184" height="25" fill="#f3f4f6" rx="8"/>
    <rect x="15" y="12" width="60" height="17" fill="#10b981" rx="8"/>
    <text x="45" y="23" text-anchor="middle" fill="#ffffff" font-family="Arial" font-size="8">WebDAV</text>

    <!-- Address bar -->
    <rect x="15" y="40" width="170" height="18" fill="#e5e7eb" rx="9"/>
    <text x="25" y="52" fill="#6b7280" font-family="monospace" font-size="8">https://webdav.example.com</text>
    <rect x="170" y="43" width="12" height="12" fill="#10b981" rx="2"/>
    <text x="176" y="51" text-anchor="middle" fill="#ffffff" font-size="6">🔒</text>

    <!-- File listing in browser -->
    <g transform="translate(15, 65)">
      <rect x="0" y="0" width="170" height="60" fill="#f8fafc" rx="4"/>

      <!-- Folder icons and names -->
      <g transform="translate(10, 10)">
        <rect x="0" y="0" width="12" height="10" fill="#fbbf24" rx="2"/>
        <text x="18" y="8" fill="#374151" font-size="8">Documents</text>

        <rect x="0" y="15" width="12" height="10" fill="#fbbf24" rx="2"/>
        <text x="18" y="23" fill="#374151" font-size="8">Media</text>

        <rect x="0" y="30" width="12" height="10" fill="#fbbf24" rx="2"/>
        <text x="18" y="38" fill="#374151" font-size="8">Projects</text>

        <rect x="0" y="45" width="12" height="10" fill="#60a5fa" rx="2"/>
        <text x="18" y="53" fill="#374151" font-size="8">file.pdf</text>
      </g>
    </g>

    <text x="100" y="155" text-anchor="middle" fill="#ffffff" font-family="Arial" font-size="12" font-weight="bold">Web Browser Access</text>
  </g>

  <!-- Desktop Client (top right) -->
  <g transform="translate(1300, 150)">
    <!-- Application window -->
    <rect x="0" y="0" width="180" height="120" fill="#1f2937" rx="10"/>
    <rect x="8" y="8" width="164" height="104" fill="#374151" rx="6"/>

    <!-- Title bar -->
    <rect x="8" y="8" width="164" height="20" fill="#4b5563" rx="6"/>
    <circle cx="18" cy="18" r="3" fill="#ef4444"/>
    <circle cx="28" cy="18" r="3" fill="#f59e0b"/>
    <circle cx="38" cy="18" r="3" fill="#10b981"/>
    <text x="86" y="21" text-anchor="middle" fill="#ffffff" font-size="9">WebDAV Client</text>

    <!-- Client interface -->
    <rect x="15" y="35" width="150" height="70" fill="#1f2937" rx="4"/>

    <!-- Connection status -->
    <rect x="20" y="40" width="140" height="12" fill="#065f46" rx="2"/>
    <text x="90" y="48" text-anchor="middle" fill="#10b981" font-size="8">Connected to webdav.example.com</text>

    <!-- File transfer -->
    <g transform="translate(20, 55)">
      <rect x="0" y="0" width="140" height="8" fill="#374151" rx="4"/>
      <rect x="0" y="0" width="100" height="8" fill="#10b981" rx="4"/>
      <text x="70" y="15" text-anchor="middle" fill="#d1d5db" font-size="7">Uploading: document.docx (71%)</text>

      <rect x="0" y="25" width="140" height="8" fill="#374151" rx="4"/>
      <rect x="0" y="25" width="140" height="8" fill="#10b981" rx="4"/>
      <text x="70" y="40" text-anchor="middle" fill="#d1d5db" font-size="7">Downloaded: presentation.pptx</text>
    </g>

    <text x="90" y="140" text-anchor="middle" fill="#ffffff" font-family="Arial" font-size="12" font-weight="bold">Desktop Client</text>
  </g>

  <!-- Mobile Device (bottom left) -->
  <g transform="translate(150, 650)">
    <!-- Smartphone -->
    <rect x="0" y="0" width="80" height="140" fill="#1f2937" rx="20"/>
    <rect x="6" y="12" width="68" height="116" fill="#374151" rx="15"/>
    <rect x="12" y="18" width="56" height="90" fill="#000000" rx="8"/>

    <!-- Screen content - WebDAV app -->
    <rect x="15" y="21" width="50" height="12" fill="#10b981" rx="2"/>
    <text x="40" y="29" text-anchor="middle" fill="#ffffff" font-size="6">WebDAV Files</text>

    <!-- File list -->
    <g transform="translate(15, 35)">
      <rect x="0" y="0" width="50" height="6" fill="#374151" rx="1"/>
      <text x="2" y="4" fill="#ffffff" font-size="4">📁 Documents</text>

      <rect x="0" y="8" width="50" height="6" fill="#374151" rx="1"/>
      <text x="2" y="12" fill="#ffffff" font-size="4">📁 Photos</text>

      <rect x="0" y="16" width="50" height="6" fill="#374151" rx="1"/>
      <text x="2" y="20" fill="#ffffff" font-size="4">📄 report.pdf</text>

      <rect x="0" y="24" width="50" height="6" fill="#374151" rx="1"/>
      <text x="2" y="28" fill="#ffffff" font-size="4">🎵 music.mp3</text>
    </g>

    <!-- Upload progress -->
    <rect x="15" y="85" width="50" height="15" fill="#065f46" rx="3"/>
    <text x="40" y="93" text-anchor="middle" fill="#10b981" font-size="5">Uploading...</text>
    <rect x="18" y="96" width="44" height="3" fill="#374151" rx="1"/>
    <rect x="18" y="96" width="30" height="3" fill="#10b981" rx="1"/>

    <!-- Home button -->
    <circle cx="40" cy="118" r="8" fill="#4b5563"/>
    <rect x="36" y="114" width="8" height="8" fill="#d1d5db" rx="1"/>

    <text x="40" y="160" text-anchor="middle" fill="#ffffff" font-family="Arial" font-size="12" font-weight="bold">Mobile Apps</text>
  </g>

  <!-- Remote Office (bottom right) -->
  <g transform="translate(1250, 650)">
    <!-- Laptop -->
    <rect x="0" y="40" width="200" height="120" fill="#374151" rx="15"/>
    <rect x="10" y="10" width="180" height="115" fill="#1f2937" rx="10"/>
    <rect x="15" y="15" width="170" height="100" fill="#000000" rx="8"/>

    <!-- Screen content - WebDAV in file manager -->
    <rect x="20" y="20" width="160" height="15" fill="#4b5563" rx="3"/>
    <text x="100" y="30" text-anchor="middle" fill="#ffffff" font-size="8">Remote WebDAV Connection</text>

    <!-- File explorer interface -->
    <g transform="translate(20, 40)">
      <!-- Left panel (folders) -->
      <rect x="0" y="0" width="50" height="70" fill="#1f2937" rx="3"/>
      <text x="25" y="10" text-anchor="middle" fill="#d1d5db" font-size="6">Folders</text>
      <rect x="2" y="15" width="46" height="8" fill="#374151" rx="1"/>
      <text x="4" y="21" fill="#10b981" font-size="5">🌐 WebDAV</text>
      <rect x="2" y="25" width="46" height="8" fill="#4b5563" rx="1"/>
      <text x="4" y="31" fill="#d1d5db" font-size="5">📁 Local</text>

      <!-- Right panel (files) -->
      <rect x="55" y="0" width="105" height="70" fill="#111827" rx="3"/>
      <text x="107" y="10" text-anchor="middle" fill="#d1d5db" font-size="6">webdav.example.com/work</text>

      <!-- File grid -->
      <g transform="translate(60, 15)">
        <rect x="0" y="0" width="20" height="15" fill="#374151" rx="2"/>
        <text x="10" y="8" text-anchor="middle" fill="#fbbf24" font-size="8">📁</text>
        <text x="10" y="18" text-anchor="middle" fill="#d1d5db" font-size="4">Docs</text>

        <rect x="25" y="0" width="20" height="15" fill="#374151" rx="2"/>
        <text x="35" y="8" text-anchor="middle" fill="#60a5fa" font-size="8">📄</text>
        <text x="35" y="18" text-anchor="middle" fill="#d1d5db" font-size="4">file.pdf</text>

        <rect x="50" y="0" width="20" height="15" fill="#374151" rx="2"/>
        <text x="60" y="8" text-anchor="middle" fill="#f87171" font-size="8">🎥</text>
        <text x="60" y="18" text-anchor="middle" fill="#d1d5db" font-size="4">video.mp4</text>

        <rect x="75" y="0" width="20" height="15" fill="#374151" rx="2"/>
        <text x="85" y="8" text-anchor="middle" fill="#34d399" font-size="8">📊</text>
        <text x="85" y="18" text-anchor="middle" fill="#d1d5db" font-size="4">data.xlsx</text>
      </g>

      <!-- Status bar -->
      <rect x="0" y="75" width="160" height="10" fill="#0f172a" rx="2"/>
      <text x="5" y="82" fill="#10b981" font-size="5">✓ Connected • 15 items • 2.3 GB free</text>
    </g>

    <!-- Laptop base -->
    <rect x="50" y="155" width="100" height="8" fill="#6b7280" rx="4"/>

    <text x="100" y="180" text-anchor="middle" fill="#ffffff" font-family="Arial" font-size="12" font-weight="bold">Remote Office</text>
  </g>

  <!-- HTTPS Connection Lines with Data Flow -->
  <g stroke="#ffffff" stroke-width="3" opacity="0.8" fill="none">
    <!-- Browser to server -->
    <path d="M300,220 Q475,250 650,450">
      <circle r="5" fill="#10b981" opacity="0.9">
        <animateMotion dur="4s" repeatCount="indefinite">
          <path d="M0,0 Q175,30 350,230"/>
        </animateMotion>
      </circle>
    </path>

    <!-- Desktop client to server -->
    <path d="M1300,210 Q1125,250 950,450">
      <circle r="5" fill="#3b82f6" opacity="0.9">
        <animateMotion dur="3.5s" repeatCount="indefinite">
          <path d="M0,0 Q-175,40 -350,240"/>
        </animateMotion>
      </circle>
    </path>

    <!-- Mobile to server (via internet) -->
    <path d="M230,650 Q400,400 650,450">
      <circle r="5" fill="#f59e0b" opacity="0.9">
        <animateMotion dur="5s" repeatCount="indefinite">
          <path d="M0,0 Q170,-250 420,-200"/>
        </animateMotion>
      </circle>
    </path>

    <!-- Remote office to server (via internet) -->
    <path d="M1250,720 Q1000,400 950,450">
      <circle r="5" fill="#ef4444" opacity="0.9">
        <animateMotion dur="4.5s" repeatCount="indefinite">
          <path d="M0,0 Q-250,-320 -300,-270"/>
        </animateMotion>
      </circle>
    </path>

    <!-- Server to internet cloud -->
    <path d="M800,350 Q800,200 800,140"/>
  </g>

  <!-- Protocol and Security Labels -->
  <g opacity="0.8">
    <!-- HTTPS labels -->
    <rect x="450" y="280" width="100" height="25" fill="#047857" rx="12" opacity="0.9"/>
    <text x="500" y="297" text-anchor="middle" fill="#ffffff" font-family="Arial" font-size="11" font-weight="bold">HTTPS/SSL</text>

    <rect x="1050" y="280" width="100" height="25" fill="#047857" rx="12" opacity="0.9"/>
    <text x="1100" y="297" text-anchor="middle" fill="#ffffff" font-family="Arial" font-size="11" font-weight="bold">HTTPS/SSL</text>

    <rect x="400" y="520" width="120" height="25" fill="#047857" rx="12" opacity="0.9"/>
    <text x="460" y="537" text-anchor="middle" fill="#ffffff" font-family="Arial" font-size="11" font-weight="bold">WebDAV/HTTPS</text>

    <rect x="1050" y="520" width="120" height="25" fill="#047857" rx="12" opacity="0.9"/>
    <text x="1110" y="537" text-anchor="middle" fill="#ffffff" font-family="Arial" font-size="11" font-weight="bold">WebDAV/HTTPS</text>
  </g>

  <!-- WebDAV Methods Display -->
  <g transform="translate(400, 600)" opacity="0.6">
    <rect x="0" y="0" width="800" height="40" fill="#1f2937" rx="20" opacity="0.9"/>
    <text x="400" y="15" text-anchor="middle" fill="#10b981" font-family="Arial" font-size="12" font-weight="bold">WebDAV Methods</text>
    <text x="400" y="30" text-anchor="middle" fill="#ffffff" font-family="monospace" font-size="10">GET • PUT • DELETE • PROPFIND • PROPPATCH • MKCOL • COPY • MOVE • LOCK • UNLOCK</text>
  </g>

  <!-- Main Title -->
  <text x="800" y="120" text-anchor="middle" fill="#ffffff" font-family="Arial, sans-serif" font-size="84" font-weight="bold" style="text-shadow: 3px 3px 6px rgba(0,0,0,0.6);">WebDAV with Nginx</text>

  <!-- Subtitle -->
  <text x="800" y="170" text-anchor="middle" fill="#e2e8f0" font-family="Arial, sans-serif" font-size="28" font-weight="normal" style="text-shadow: 2px 2px 4px rgba(0,0,0,0.5);">Secure Web-Based File Sharing</text>

  <!-- Security and Access Benefits -->
  <g transform="translate(600, 200)" opacity="0.8">
    <rect x="0" y="0" width="400" height="30" fill="#1f2937" rx="15" opacity="0.9"/>
    <text x="200" y="20" text-anchor="middle" fill="#10b981" font-family="Arial" font-size="14" font-weight="bold">🔒 Firewall Friendly • 🌐 Universal Access • 📱 Mobile Ready</text>
  </g>

  <!-- Decorative Security Elements -->
  <g opacity="0.4">
    <!-- SSL certificate icon -->
    <g transform="translate(50, 400)">
      <rect x="0" y="15" width="40" height="30" fill="#10b981" rx="5"/>
      <circle cx="20" cy="10" r="8" fill="#047857"/>
      <text x="20" y="32" text-anchor="middle" fill="#ffffff" font-size="8">SSL</text>
      <text x="20" y="60" text-anchor="middle" fill="#ffffff" font-size="8">Certificate</text>
    </g>

    <!-- Performance indicator -->
    <g transform="translate(1500, 400)">
      <rect x="0" y="30" width="6" height="20" fill="#10b981"/>
      <rect x="10" y="25" width="6" height="25" fill="#10b981"/>
      <rect x="20" y="20" width="6" height="30" fill="#10b981"/>
      <rect x="30" y="15" width="6" height="35" fill="#10b981"/>
      <rect x="40" y="10" width="6" height="40" fill="#10b981"/>
      <text x="25" y="65" text-anchor="middle" fill="#ffffff" font-size="8">HTTP/2</text>
    </g>

    <!-- Global access indicator -->
    <g transform="translate(1450, 100)">
      <circle cx="25" cy="25" r="20" fill="none" stroke="#ffffff" stroke-width="2"/>
      <circle cx="25" cy="25" r="12" fill="none" stroke="#ffffff" stroke-width="1"/>
      <circle cx="25" cy="25" r="4" fill="#ffffff"/>
      <text x="25" y="60" text-anchor="middle" fill="#ffffff" font-size="8">Global</text>
    </g>
  </g>

  <!-- Background Network Topology -->
  <g opacity="0.15">
    <circle cx="100" cy="200" r="4" fill="#ffffff"/>
    <circle cx="1500" cy="300" r="4" fill="#ffffff"/>
    <circle cx="200" cy="800" r="4" fill="#ffffff"/>
    <circle cx="1400" cy="800" r="4" fill="#ffffff"/>
    <circle cx="800" cy="850" r="4" fill="#ffffff"/>

    <!-- Connecting lines -->
    <line x1="100" y1="200" x2="650" y2="400" stroke="#ffffff" stroke-width="1"/>
    <line x1="1500" y1="300" x2="950" y2="400" stroke="#ffffff" stroke-width="1"/>
    <line x1="200" y1="800" x2="650" y2="550" stroke="#ffffff" stroke-width="1"/>
    <line x1="1400" y1="800" x2="950" y2="550" stroke="#ffffff" stroke-width="1"/>
    <line x1="800" y1="850" x2="800" y2="550" stroke="#ffffff" stroke-width="1"/>
  </g>
</svg>
