<svg viewBox="0 0 1600 900" xmlns="http://www.w3.org/2000/svg">
  <defs>
    <linearGradient id="bgGradient" x1="0%" y1="0%" x2="100%" y2="100%">
      <stop offset="0%" style="stop-color:#0f0f23;stop-opacity:1" />
      <stop offset="100%" style="stop-color:#1a1a2e;stop-opacity:1" />
    </linearGradient>
    <linearGradient id="terminalGradient" x1="0%" y1="0%" x2="100%" y2="100%">
      <stop offset="0%" style="stop-color:#0d1117;stop-opacity:1" />
      <stop offset="100%" style="stop-color:#161b22;stop-opacity:1" />
    </linearGradient>
    <linearGradient id="waveGradient" x1="0%" y1="0%" x2="100%" y2="0%">
      <stop offset="0%" style="stop-color:#00d4ff;stop-opacity:0.8" />
      <stop offset="50%" style="stop-color:#ff6b35;stop-opacity:0.8" />
      <stop offset="100%" style="stop-color:#00ff88;stop-opacity:0.8" />
    </linearGradient>
    <filter id="glow">
      <feGaussianBlur stdDeviation="4" result="coloredBlur"/>
      <feMerge>
        <feMergeNode in="coloredBlur"/>
        <feMergeNode in="SourceGraphic"/>
      </feMerge>
    </filter>
    <filter id="speakerGlow">
      <feGaussianBlur stdDeviation="6" result="coloredBlur"/>
      <feMerge>
        <feMergeNode in="coloredBlur"/>
        <feMergeNode in="SourceGraphic"/>
      </feMerge>
    </filter>
  </defs>

  <!-- Background -->
  <rect width="1600" height="900" fill="url(#bgGradient)"/>

  <!-- Title -->
  <text x="800" y="70" text-anchor="middle" fill="#ffffff" font-family="Arial, sans-serif" font-size="44" font-weight="bold">
    Text-to-Speech with uv
  </text>
  <text x="800" y="110" text-anchor="middle" fill="#888" font-family="Arial, sans-serif" font-size="22">
    Convert Text to Audio with One Command
  </text>

  <!-- Main Terminal Window -->
  <rect x="50" y="150" width="750" height="480" rx="12" fill="url(#terminalGradient)" stroke="#333" stroke-width="2"/>

  <!-- Terminal Header -->
  <rect x="50" y="150" width="750" height="40" rx="12" fill="#2d3748"/>
  <circle cx="75" cy="170" r="6" fill="#ff5f57"/>
  <circle cx="95" cy="170" r="6" fill="#ffbd2e"/>
  <circle cx="115" cy="170" r="6" fill="#28ca42"/>
  <text x="400" y="175" text-anchor="middle" fill="#ffffff" font-family="monospace" font-size="14">Text-to-Speech Script</text>

  <!-- Terminal Content -->
  <text x="70" y="220" fill="#00ff00" font-family="monospace" font-size="16">$ uv run tts.py "Hello, world!"</text>
  <text x="70" y="250" fill="#888" font-family="monospace" font-size="14">🔧 Trying method: pyttsx3...</text>
  <text x="70" y="270" fill="#888" font-family="monospace" font-size="14">✅ Audio generated successfully using 'pyttsx3'!</text>
  <text x="70" y="290" fill="#888" font-family="monospace" font-size="14">🔊 Playing audio from: /tmp/temp_speech.wav</text>
  <text x="70" y="310" fill="#888" font-family="monospace" font-size="14">🎵 Playing... (Press Ctrl+C to stop)</text>

  <text x="70" y="350" fill="#00ff00" font-family="monospace" font-size="16">$ uv run tts.py "Save this" -s output.mp3</text>
  <text x="70" y="370" fill="#888" font-family="monospace" font-size="14">🔧 Trying method: system...</text>
  <text x="70" y="390" fill="#888" font-family="monospace" font-size="14">✅ Audio generated successfully using 'system'!</text>
  <text x="70" y="410" fill="#888" font-family="monospace" font-size="14">💾 MP3 saved successfully: output.mp3</text>

  <text x="70" y="450" fill="#00ff00" font-family="monospace" font-size="16">$ uv run tts.py --list-voices</text>
  <text x="70" y="470" fill="#888" font-family="monospace" font-size="14">Available macOS voices:</text>
  <text x="70" y="490" fill="#888" font-family="monospace" font-size="14">Alex    en_US   # Most people recognize me</text>
  <text x="70" y="510" fill="#888" font-family="monospace" font-size="14">Samantha en_US  # I have a clear voice</text>
  <text x="70" y="530" fill="#888" font-family="monospace" font-size="14">Victoria en_GB   # I speak with a British accent</text>

  <text x="70" y="570" fill="#00ff00" font-family="monospace" font-size="16">$ uv run tts.py "Hello" --voice "Samantha"</text>
  <text x="70" y="590" fill="#888" font-family="monospace" font-size="14">🔧 Using voice: Samantha</text>
  <text x="70" y="610" fill="#888" font-family="monospace" font-size="14">✅ Audio generated successfully!</text>

  <!-- Speaker Icon with Sound Waves -->
  <g transform="translate(850, 200)">
    <!-- Speaker body -->
    <rect x="0" y="20" width="60" height="80" rx="8" fill="#444" stroke="#666" stroke-width="2"/>
    <rect x="10" y="30" width="40" height="60" rx="4" fill="#222"/>

    <!-- Speaker cone -->
    <circle cx="30" cy="60" r="20" fill="#333" stroke="#555" stroke-width="1"/>
    <circle cx="30" cy="60" r="12" fill="#444"/>
    <circle cx="30" cy="60" r="6" fill="#666"/>

    <!-- Sound waves -->
    <path d="M 80 40 Q 100 60 80 80" stroke="#00d4ff" stroke-width="3" fill="none" filter="url(#glow)"/>
    <path d="M 90 30 Q 120 60 90 90" stroke="#ff6b35" stroke-width="3" fill="none" filter="url(#glow)"/>
    <path d="M 100 20 Q 140 60 100 100" stroke="#00ff88" stroke-width="3" fill="none" filter="url(#glow)"/>
  </g>

  <!-- Audio Waveform Visualization -->
  <g transform="translate(850, 320)">
    <rect x="0" y="0" width="700" height="120" rx="8" fill="rgba(0,0,0,0.3)" stroke="#333" stroke-width="1"/>
    <text x="350" y="25" text-anchor="middle" fill="#ffffff" font-family="Arial, sans-serif" font-size="16" font-weight="bold">
      Audio Waveform
    </text>

    <!-- Waveform bars -->
    <rect x="20" y="60" width="8" height="40" fill="url(#waveGradient)" filter="url(#glow)"/>
    <rect x="35" y="45" width="8" height="70" fill="url(#waveGradient)" filter="url(#glow)"/>
    <rect x="50" y="30" width="8" height="100" fill="url(#waveGradient)" filter="url(#glow)"/>
    <rect x="65" y="50" width="8" height="60" fill="url(#waveGradient)" filter="url(#glow)"/>
    <rect x="80" y="40" width="8" height="80" fill="url(#waveGradient)" filter="url(#glow)"/>
    <rect x="95" y="55" width="8" height="50" fill="url(#waveGradient)" filter="url(#glow)"/>

    <!-- More waveform bars -->
    <rect x="120" y="35" width="8" height="90" fill="url(#waveGradient)" filter="url(#glow)"/>
    <rect x="135" y="50" width="8" height="60" fill="url(#waveGradient)" filter="url(#glow)"/>
    <rect x="150" y="25" width="8" height="110" fill="url(#waveGradient)" filter="url(#glow)"/>
    <rect x="165" y="45" width="8" height="70" fill="url(#waveGradient)" filter="url(#glow)"/>
    <rect x="180" y="60" width="8" height="40" fill="url(#waveGradient)" filter="url(#glow)"/>

    <!-- Continue pattern -->
    <rect x="200" y="40" width="8" height="80" fill="url(#waveGradient)" filter="url(#glow)"/>
    <rect x="215" y="55" width="8" height="50" fill="url(#waveGradient)" filter="url(#glow)"/>
    <rect x="230" y="30" width="8" height="100" fill="url(#waveGradient)" filter="url(#glow)"/>
    <rect x="245" y="50" width="8" height="60" fill="url(#waveGradient)" filter="url(#glow)"/>
    <rect x="260" y="45" width="8" height="70" fill="url(#waveGradient)" filter="url(#glow)"/>

    <!-- Final bars -->
    <rect x="280" y="35" width="8" height="90" fill="url(#waveGradient)" filter="url(#glow)"/>
    <rect x="295" y="60" width="8" height="40" fill="url(#waveGradient)" filter="url(#glow)"/>
    <rect x="310" y="50" width="8" height="60" fill="url(#waveGradient)" filter="url(#glow)"/>
  </g>

  <!-- Features Section -->
  <rect x="850" y="480" width="700" height="160" rx="10" fill="rgba(255,255,255,0.05)" stroke="#333" stroke-width="2"/>

  <text x="1200" y="515" text-anchor="middle" fill="#ffffff" font-family="Arial, sans-serif" font-size="24" font-weight="bold">
    Key Features
  </text>

  <!-- Feature 1 -->
  <circle cx="885" cy="545" r="12" fill="#00d4ff"/>
  <text x="905" y="550" fill="#ffffff" font-family="Arial, sans-serif" font-size="16" font-weight="bold">
    Multiple TTS Engines
  </text>
  <text x="905" y="565" fill="#ccc" font-family="Arial, sans-serif" font-size="12">
    pyttsx3, Google TTS, &amp; system voices
  </text>

  <!-- Feature 2 -->
  <circle cx="885" cy="585" r="12" fill="#ff6b35"/>
  <text x="905" y="590" fill="#ffffff" font-family="Arial, sans-serif" font-size="16" font-weight="bold">
    Voice Selection
  </text>
  <text x="905" y="605" fill="#ccc" font-family="Arial, sans-serif" font-size="12">
    Choose from system voices (Alex, Samantha, etc.)
  </text>

  <!-- Feature 3 -->
  <circle cx="1285" cy="545" r="12" fill="#00ff88"/>
  <text x="1305" y="550" fill="#ffffff" font-family="Arial, sans-serif" font-size="16" font-weight="bold">
    Save &amp; Play
  </text>
  <text x="1305" y="565" fill="#ccc" font-family="Arial, sans-serif" font-size="12">
    Play instantly or save as MP3
  </text>

  <!-- Feature 4 -->
  <circle cx="1285" cy="585" r="12" fill="#8b5cf6"/>
  <text x="1305" y="590" fill="#ffffff" font-family="Arial, sans-serif" font-size="16" font-weight="bold">
    Speed Control
  </text>
  <text x="1305" y="605" fill="#ccc" font-family="Arial, sans-serif" font-size="12">
    Adjust speech rate (WPM)
  </text>

  <!-- Bottom Command Examples -->
  <rect x="50" y="680" width="1500" height="180" rx="10" fill="rgba(255,255,255,0.05)" stroke="#333" stroke-width="2"/>
  <text x="800" y="715" text-anchor="middle" fill="#ffffff" font-family="Arial, sans-serif" font-size="22" font-weight="bold">
    Common Usage Examples
  </text>

  <!-- Command examples -->
  <text x="70" y="745" fill="#00ff00" font-family="monospace" font-size="14">$ uv run tts.py "Hello world"</text>
  <text x="500" y="745" fill="#ccc" font-family="Arial, sans-serif" font-size="12">Basic text-to-speech</text>

  <text x="70" y="765" fill="#00ff00" font-family="monospace" font-size="14">$ uv run tts.py "Save this" -s audio.mp3</text>
  <text x="500" y="765" fill="#ccc" font-family="Arial, sans-serif" font-size="12">Save as MP3 file</text>

  <text x="70" y="785" fill="#00ff00" font-family="monospace" font-size="14">$ uv run tts.py "Hello" --voice "Samantha"</text>
  <text x="500" y="785" fill="#ccc" font-family="Arial, sans-serif" font-size="12">Use specific voice</text>

  <text x="70" y="805" fill="#00ff00" font-family="monospace" font-size="14">$ uv run tts.py "Fast speech" -r 200</text>
  <text x="500" y="805" fill="#ccc" font-family="Arial, sans-serif" font-size="12">Adjust speech rate</text>

  <text x="70" y="825" fill="#00ff00" font-family="monospace" font-size="14">$ uv run tts.py -f document.txt -s output.mp3</text>
  <text x="500" y="825" fill="#ccc" font-family="Arial, sans-serif" font-size="12">Read from file and save</text>

  <text x="70" y="845" fill="#00ff00" font-family="monospace" font-size="14">$ uv run tts.py --list-voices</text>
  <text x="500" y="845" fill="#ccc" font-family="Arial, sans-serif" font-size="12">List available voices</text>

  <!-- uv logo -->
  <circle cx="1480" cy="780" r="35" fill="#ff6b35" filter="url(#glow)"/>
  <text x="1480" y="790" text-anchor="middle" fill="#ffffff" font-family="Arial, sans-serif" font-size="28" font-weight="bold">uv</text>

  <!-- Microphone icon -->
  <g transform="translate(1400, 760)">
    <rect x="0" y="0" width="20" height="35" rx="10" fill="#666" stroke="#888" stroke-width="1"/>
    <rect x="7" y="7" width="6" height="21" rx="3" fill="#333"/>
    <rect x="-5" y="40" width="30" height="3" rx="1" fill="#666"/>
    <rect x="7" y="43" width="6" height="10" rx="1" fill="#666"/>
  </g>
</svg>
