<svg xmlns="http://www.w3.org/2000/svg" viewBox="0 0 1600 900">
  <defs>
    <linearGradient id="bgGrad" x1="0%" y1="0%" x2="100%" y2="100%">
      <stop offset="0%" style="stop-color:#1e3a8a;stop-opacity:1" />
      <stop offset="100%" style="stop-color:#3b82f6;stop-opacity:1" />
    </linearGradient>
  </defs>
  
  <!-- Background -->
  <rect width="1600" height="900" fill="url(#bgGrad)"/>
  
  <!-- Cloud icons -->
  <g opacity="0.15">
    <ellipse cx="400" cy="250" rx="80" ry="40" fill="#ffffff"/>
    <ellipse cx="350" cy="235" rx="60" ry="35" fill="#ffffff"/>
    <ellipse cx="440" cy="235" rx="55" ry="30" fill="#ffffff"/>
    
    <ellipse cx="1200" cy="650" rx="80" ry="40" fill="#ffffff"/>
    <ellipse cx="1150" cy="635" rx="60" ry="35" fill="#ffffff"/>
    <ellipse cx="1240" cy="635" rx="55" ry="30" fill="#ffffff"/>
  </g>
  
  <!-- Price tag icon -->
  <g transform="translate(250, 350)">
    <path d="M 0 30 L 0 130 L 100 130 L 130 100 L 100 70 L 130 40 L 100 10 L 0 10 L 0 30" 
          fill="#ffffff" opacity="0.9" stroke="#60a5fa" stroke-width="3"/>
    <circle cx="30" cy="70" r="8" fill="#3b82f6"/>
    <text x="55" y="80" font-family="Arial, sans-serif" font-size="28" font-weight="bold" fill="#1e3a8a">€3.49</text>
  </g>
  
  <!-- Server icon -->
  <g transform="translate(1150, 300)">
    <rect x="0" y="0" width="150" height="35" rx="5" fill="#ffffff" opacity="0.9"/>
    <circle cx="15" cy="17.5" r="5" fill="#10b981"/>
    <circle cx="35" cy="17.5" r="5" fill="#10b981"/>
    <rect x="50" y="10" width="90" height="3" fill="#cbd5e1"/>
    <rect x="50" y="22" width="70" height="3" fill="#cbd5e1"/>
    
    <rect x="0" y="50" width="150" height="35" rx="5" fill="#ffffff" opacity="0.9"/>
    <circle cx="15" cy="67.5" r="5" fill="#10b981"/>
    <circle cx="35" cy="67.5" r="5" fill="#10b981"/>
    <rect x="50" y="60" width="90" height="3" fill="#cbd5e1"/>
    <rect x="50" y="72" width="70" height="3" fill="#cbd5e1"/>
    
    <rect x="0" y="100" width="150" height="35" rx="5" fill="#ffffff" opacity="0.9"/>
    <circle cx="15" cy="117.5" r="5" fill="#10b981"/>
    <circle cx="35" cy="117.5" r="5" fill="#10b981"/>
    <rect x="50" y="110" width="90" height="3" fill="#cbd5e1"/>
    <rect x="50" y="122" width="70" height="3" fill="#cbd5e1"/>
  </g>
  
  <!-- Main text -->
  <text x="800" y="420" font-family="Arial, sans-serif" font-size="72" font-weight="bold" 
        fill="#ffffff" text-anchor="middle">Hetzner Cloud</text>
  <text x="800" y="510" font-family="Arial, sans-serif" font-size="58" font-weight="bold" 
        fill="#60a5fa" text-anchor="middle">Cost-Optimized Plans</text>
  
  <!-- Decorative elements -->
  <circle cx="150" cy="700" r="40" fill="#ffffff" opacity="0.1"/>
  <circle cx="1450" cy="150" r="60" fill="#ffffff" opacity="0.1"/>
</svg>
