<svg viewBox="0 0 1600 900" xmlns="http://www.w3.org/2000/svg">
  <defs>
    <linearGradient id="bgGrad" x1="0%" y1="0%" x2="100%" y2="100%">
      <stop offset="0%" stop-color="#DBEAFE"/>
      <stop offset="100%" stop-color="#BFDBFE"/>
    </linearGradient>
  </defs>
  
  <rect width="1600" height="900" fill="url(#bgGrad)"/>
  
  <g transform="translate(250, 320)">
    <rect x="0" y="0" width="220" height="70" rx="10" fill="#0EA5E9"/>
    <circle cx="35" cy="35" r="10" fill="#FFF"/>
    <circle cx="70" cy="35" r="10" fill="#FFF"/>
    <rect x="100" y="25" width="100" height="10" rx="5" fill="#FFF" opacity="0.8"/>
    <rect x="100" y="45" width="70" height="10" rx="5" fill="#FFF" opacity="0.6"/>
    
    <rect x="0" y="90" width="220" height="70" rx="10" fill="#0EA5E9" opacity="0.85"/>
    <circle cx="35" cy="125" r="10" fill="#FFF"/>
    <circle cx="70" cy="125" r="10" fill="#FFF"/>
    <rect x="100" y="115" width="100" height="10" rx="5" fill="#FFF" opacity="0.8"/>
    <rect x="100" y="135" width="70" height="10" rx="5" fill="#FFF" opacity="0.6"/>
    
    <rect x="0" y="180" width="220" height="70" rx="10" fill="#0EA5E9" opacity="0.7"/>
    <circle cx="35" cy="215" r="10" fill="#FFF"/>
    <circle cx="70" cy="215" r="10" fill="#FFF"/>
    <rect x="100" y="205" width="100" height="10" rx="5" fill="#FFF" opacity="0.8"/>
    <rect x="100" y="225" width="70" height="10" rx="5" fill="#FFF" opacity="0.6"/>
  </g>
  
  <g transform="translate(1080, 360)">
    <ellipse cx="110" cy="45" rx="110" ry="35" fill="#0284C7"/>
    <rect x="0" y="45" width="220" height="110" fill="#0284C7"/>
    <ellipse cx="110" cy="155" rx="110" ry="35" fill="#0369A1"/>
  </g>
  
  <line x1="470" y1="420" x2="1080" y2="440" stroke="#0284C7" stroke-width="5" stroke-dasharray="12,8" opacity="0.5"/>
  
  <text x="800" y="220" font-family="Arial, sans-serif" font-size="110" font-weight="bold" fill="#0C4A6E" text-anchor="middle">
    Self-Host Convex
  </text>
  
  <text x="800" y="780" font-family="Arial, sans-serif" font-size="48" fill="#075985" text-anchor="middle" opacity="0.9">
    Docker &amp; Dokploy Guide
  </text>
</svg>
