<svg xmlns="http://www.w3.org/2000/svg" viewBox="0 0 1600 900">
  <defs>
    <linearGradient id="bgGrad" x1="0%" y1="0%" x2="100%" y2="100%">
      <stop offset="0%" stop-color="#1e3a8a" stop-opacity="1" />
      <stop offset="100%" stop-color="#0f172a" stop-opacity="0.8" />
    </linearGradient>
    <linearGradient id="accentGrad" x1="0%" y1="0%" x2="100%" y2="100%">
      <stop offset="0%" stop-color="#f97316" stop-opacity="1" />
      <stop offset="100%" stop-color="#fbbf24" stop-opacity="0" />
    </linearGradient>
  </defs>
  
  <!-- Background -->
  <rect width="1600" height="900" fill="url(#bgGrad)" />
  
  <!-- Decorative circles -->
  <circle cx="1450" cy="150" r="200" fill="rgba(255,255,255,0.05)" />
  <circle cx="150" cy="750" r="300" fill="rgba(255,255,255,0.08)" />
  
  <circle cx="100" cy="150" r="150" fill="rgba(255,255,255,0.03)" />
  
  <circle cx="150" cy="200" r="400" fill="rgba(255,255,255,0.1)" />
  
  <circle cx="100" cy="850" r="250" fill="rgba(255,255,255,0.05)" />
  
  <circle cx="1450" cy="450" r="500" fill="rgba(255,255,255,0.08)" />
  <circle cx="1450" cy="350" r="300" fill="rgba(247,147,267,0.1)" />
  
  <circle cx="100" cy="500" r="350" fill="rgba(247,147,267,0.15)" />
  
  <circle cx="150" cy="550" r="200" fill="rgba(247,147,267,0.2)" />
  <circle cx="200" cy="450" r="400" fill="rgba(247,147,267,0.1)" />
  <circle cx="200" cy="550" r="200" fill="rgba(247,147,267,0.15)" />
  <circle cx="1400" cy="650" r="100" fill="rgba(255,255,255,0.05)" />
  <circle cx="1350" cy="700" r="150" fill="rgba(255,255,255,0.08)" />
  <circle cx="1300" cy="750" r="100" fill="rgba(255,255,255,0.1)" />
  
  <circle cx="100" cy="700" r="150" fill="rgba(247,147,267,0.15)" />
  
  <circle cx="100" cy="800" r="200" fill="rgba(247,147,267,0.2)" />
  
  <circle cx="100" cy="850" r="100" fill="rgba(255,255,255,0.3)" />
  
  <circle cx="250" cy="750" r="100" fill="rgba(255,255,255,0.05)" />
  <circle cx="300" cy="700" r="150" fill="rgba(255,255,255,0.1)" />
  
  <circle cx="400" cy="650" r="100" fill="rgba(255,255,255,0.05)" />
  <circle cx="500" cy="550" r="100" fill="rgba(255,255,255,0.1)" />
  
  <circle cx="600" cy="450" r="100" fill="rgba(255,255,255,0.15)" />
  <circle cx="700" cy="350" r="100" fill="rgba(255,255,255,0.2)" />
  
  <circle cx="800" cy="550" r="100" fill="rgba(255,255,255,0.3)" />
  <circle cx="900" cy="650" r="100" fill="rgba(255,255,255,0.3)" />
  
  <circle cx="1000" cy="800" r="100" fill="rgba(255,255,255,0.5)" />
  
  <circle cx="1200" cy="850" r="100" fill="rgba(247,147,267,0.3)" />
  
  <circle cx="1100" cy="750" r="100" fill="rgba(247,147,267,0.5)" />
  <circle cx="1400" cy="900" r="100" fill="rgba(255,255,255,0.7)" />
  <circle cx="1450" cy="750" r="300" fill="rgba(247,147,267,0.8)" />
  
  <circle cx="1550" cy="850" r="100" fill="rgba(247,147,267,0.8)" />
  
  <circle cx="1450" cy="150" r="200" fill="rgba(255,255,255,0.05)" opacity="0.1" />
  <circle cx="1550" cy="850" r="200" fill="rgba(255,255,255,0.1)" opacity="0.1" />
  
  <!-- Model icons (simplified representations) -->
  <g transform="translate(800, 350)">
    <!-- GLM-4 -->
    <g transform="translate(-150, 0)">
      <circle cx="0" cy="0" r="80" fill="#10b981" />
      <circle cx="0" cy="0" r="70" fill="#10b981" />
      <circle cx="0" cy="0" r="60" fill="#10b981" />
      <rect x="-60" y="-30" width="120" height="80" rx="8" fill="#f97316" />
      <rect x="-60" y="70" width="120" height="20" rx="8" fill="#fbbf24" />
      <path d="M-40 -20 L60 50 L20 M20 L-15 50 Q-5 5 L-10 15 L-5 5 L-5" fill="none" stroke="#ffffff" stroke-width="2" stroke-linecap="round" stroke-linejoin="round"/>
      <path d="M-25 30 Q5 L15" fill="none" stroke="#ffffff" stroke-width="2" stroke-linecap="round" stroke-linejoin="round"/>
    </g>
    
    <!-- MiniMax-3.5 -->
    <g transform="translate(150, 0)">
      <circle cx="0" cy="0" r="80" fill="#8b5cf6" />
      <circle cx="0" cy="0" r="70" fill="#8b5cf6" />
      <circle cx="0" cy="0" r="60" fill="#8b5cf6" />
      <rect x="-60" y="-30" width="120" height="80" rx="8" fill="#f97316" />
      <rect x="-60" y="70" width="120" height="20" rx="8" fill="#fbbf24" />
      <path d="M-40 -20 L40 70 L70 L20 L20 M20 M20 L-15 50 Q-5 5 L-10 15 L-5 5 L-5" fill="none" stroke="#ffffff" stroke-width="2" stroke-linecap="round" stroke-linejoin="round"/>
      <path d="M-25 30 Q5 L15" fill="none" stroke="#ffffff" stroke-width="2" stroke-linecap="round" stroke-linejoin="round"/>
    </g>
    
    <!-- Claude Sonnet -->
    <g transform="translate(1100, 0)">
      <circle cx="0" cy="0" r="80" fill="#d97706" />
      <circle cx="0" cy="0" r="70" fill="#d97706" />
      <circle cx="0" cy="0" r="60" fill="#d97706" />
      <rect x="-60" y="-30" width="120" height="80" rx="8" fill="#f97316" />
      <rect x="-60" y="70" width="120" height="20" rx="8" fill="#fbbf24" />
      <path d="M-40 -20 L35 50 L35 L35 L35 M20 L15 35 Q-5 5 L-10 15 L-5 5 L-5" fill="none" stroke="#ffffff" stroke-width="2" stroke-linecap="round" stroke-linejoin="round"/>
      <path d="M-25 30 Q5 L15" fill="none" stroke="#ffffff" stroke-width="2" stroke-linecap="round" stroke-linejoin="round"/>
    </g>
  </g>
  
  <!-- Main title text -->
  <text x="800" y="380" text-anchor="middle" font-family="system-ui, -apple-system, sans-serif" font-size="56" font-weight="700" fill="white">
    Best Open-Source
  </text>
  <text x="800" y="440" text-anchor="middle" font-family="system-ui, -apple-system, sans-serif" font-size="32" font-weight="500" fill="white" opacity="0.9">
    Models for OpenClaw
  </text>
</svg>