<svg xmlns="http://www.w3.org/2000/svg" viewBox="0 0 1280 720" fill="none">
  <defs>
    <linearGradient id="bg" x1="0%" y1="0%" x2="100%" y2="100%">
      <stop offset="0%" stop-color="#b89cf5"/>
      <stop offset="100%" stop-color="#7c5cbf"/>
    </linearGradient>
  </defs>
  <rect width="1280" height="720" fill="url(#bg)"/>

  <!-- Plugin blocks -->
  <g transform="translate(360, 420)">
    <rect x="-70" y="-40" width="140" height="80" rx="14" fill="rgba(255,255,255,0.15)"/>
    <text x="0" y="8" text-anchor="middle" fill="white" font-size="18" font-family="system-ui, sans-serif">Fisher</text>
  </g>
  <g transform="translate(640, 420)">
    <rect x="-70" y="-40" width="140" height="80" rx="14" fill="rgba(255,255,255,0.15)"/>
    <text x="0" y="8" text-anchor="middle" fill="white" font-size="18" font-family="system-ui, sans-serif">Tide</text>
  </g>
  <g transform="translate(920, 420)">
    <rect x="-70" y="-40" width="140" height="80" rx="14" fill="rgba(255,255,255,0.15)"/>
    <text x="0" y="8" text-anchor="middle" fill="white" font-size="18" font-family="system-ui, sans-serif">fzf.fish</text>
  </g>

  <!-- Title -->
  <!-- Terminal + Fish icons -->
  <g transform="translate(640, 120)">
    <g transform="translate(-38, 0)">
      <rect x="-24" y="-19" width="48" height="38" rx="6" fill="rgba(255,255,255,0.2)" stroke="white" stroke-width="1.5"/>
      <text x="0" y="5" text-anchor="middle" fill="white" font-size="18" font-family="monospace">&gt;_</text>
    </g>
    <g transform="translate(38, 0)">
      <path d="M-20,0 C-14,-15 8,-15 18,-5 L28,-14 L28,14 L18,5 C8,15 -14,15 -20,0 Z" fill="rgba(255,255,255,0.2)" stroke="white" stroke-width="1.5"/>
      <circle cx="10" cy="-4" r="2.5" fill="white"/>
    </g>
  </g>
  <text x="640" y="190" text-anchor="middle" fill="white" font-size="65" font-family="system-ui, sans-serif" font-weight="bold">Best Fish Plugins</text>
  <text x="640" y="245" text-anchor="middle" fill="rgba(255,255,255,0.7)" font-size="24" font-family="system-ui, sans-serif">Tools and extensions</text>

  <text x="640" y="580" text-anchor="middle" fill="rgba(255,255,255,0.5)" font-size="16" font-family="system-ui, sans-serif">bitdoze.com</text>
</svg>
