<svg xmlns="http://www.w3.org/2000/svg" viewBox="0 0 1280 720" fill="none">
  <defs>
    <linearGradient id="bg" x1="0%" y1="0%" x2="100%" y2="100%">
      <stop offset="0%" stop-color="#70c4e8"/>
      <stop offset="100%" stop-color="#3a7abd"/>
    </linearGradient>
  </defs>
  <rect width="1280" height="720" fill="url(#bg)"/>

  <!-- Prompt line illustration -->
  <rect x="340" y="350" width="600" height="80" rx="12" fill="rgba(0,0,0,0.25)"/>
  <text x="370" y="400" text-anchor="start" fill="#f0d060" font-size="22" font-family="monospace">~/projects</text>
  <text x="580" y="400" text-anchor="start" fill="#80e0a0" font-size="22" font-family="monospace">main</text>
  <text x="680" y="400" text-anchor="start" fill="#e080a0" font-size="22" font-family="monospace">v4.5</text>
  <text x="770" y="400" text-anchor="start" fill="rgba(255,255,255,0.7)" font-size="22" font-family="monospace">$</text>

  <!-- Title -->
  <!-- Terminal + Fish icons -->
  <g transform="translate(640, 120)">
    <g transform="translate(-38, 0)">
      <rect x="-24" y="-19" width="48" height="38" rx="6" fill="rgba(255,255,255,0.2)" stroke="white" stroke-width="1.5"/>
      <text x="0" y="5" text-anchor="middle" fill="white" font-size="18" font-family="monospace">&gt;_</text>
    </g>
    <g transform="translate(38, 0)">
      <path d="M-20,0 C-14,-15 8,-15 18,-5 L28,-14 L28,14 L18,5 C8,15 -14,15 -20,0 Z" fill="rgba(255,255,255,0.2)" stroke="white" stroke-width="1.5"/>
      <circle cx="10" cy="-4" r="2.5" fill="white"/>
    </g>
  </g>
  <text x="640" y="190" text-anchor="middle" fill="white" font-size="59" font-family="system-ui, sans-serif" font-weight="bold">Starship + Fish Shell</text>
  <text x="640" y="245" text-anchor="middle" fill="rgba(255,255,255,0.7)" font-size="24" font-family="system-ui, sans-serif">Prompt setup guide</text>

  <text x="640" y="580" text-anchor="middle" fill="rgba(255,255,255,0.5)" font-size="16" font-family="system-ui, sans-serif">bitdoze.com</text>
</svg>