<svg xmlns="http://www.w3.org/2000/svg" viewBox="0 0 1280 720" fill="none">
  <defs>
    <linearGradient id="bg" x1="0%" y1="0%" x2="100%" y2="100%">
      <stop offset="0%" stop-color="#c8a0e0"/>
      <stop offset="100%" stop-color="#8060b0"/>
    </linearGradient>
  </defs>
  <rect width="1280" height="720" fill="url(#bg)"/>
  <g transform="translate(310, 400)">
    <rect x="-65" y="-35" width="130" height="70" rx="12" fill="rgba(255,255,255,0.15)"/>
    <text x="0" y="8" text-anchor="middle" fill="white" font-size="18" font-family="system-ui, sans-serif">Tide</text>
  </g>
  <g transform="translate(530, 400)">
    <rect x="-65" y="-35" width="130" height="70" rx="12" fill="rgba(255,255,255,0.15)"/>
    <text x="0" y="8" text-anchor="middle" fill="white" font-size="18" font-family="system-ui, sans-serif">Starship</text>
  </g>
  <g transform="translate(750, 400)">
    <rect x="-65" y="-35" width="130" height="70" rx="12" fill="rgba(255,255,255,0.15)"/>
    <text x="0" y="8" text-anchor="middle" fill="white" font-size="18" font-family="system-ui, sans-serif">Pure</text>
  </g>
  <g transform="translate(970, 400)">
    <rect x="-65" y="-35" width="130" height="70" rx="12" fill="rgba(255,255,255,0.15)"/>
    <text x="0" y="8" text-anchor="middle" fill="white" font-size="18" font-family="system-ui, sans-serif">Hydro</text>
  </g>
  <!-- Terminal + Fish icons -->
  <g transform="translate(640, 125)">
    <g transform="translate(-38, 0)">
      <rect x="-24" y="-19" width="48" height="38" rx="6" fill="rgba(255,255,255,0.2)" stroke="white" stroke-width="1.5"/>
      <text x="0" y="5" text-anchor="middle" fill="white" font-size="18" font-family="monospace">&gt;_</text>
    </g>
    <g transform="translate(38, 0)">
      <path d="M-20,0 C-14,-15 8,-15 18,-5 L28,-14 L28,14 L18,5 C8,15 -14,15 -20,0 Z" fill="rgba(255,255,255,0.2)" stroke="white" stroke-width="1.5"/>
      <circle cx="10" cy="-4" r="2.5" fill="white"/>
    </g>
  </g>
  <text x="640" y="195" text-anchor="middle" fill="white" font-size="65" font-family="system-ui, sans-serif" font-weight="bold">Fish Shell Themes</text>
  <text x="640" y="250" text-anchor="middle" fill="rgba(255,255,255,0.7)" font-size="24" font-family="system-ui, sans-serif">Best prompts compared</text>
  <text x="640" y="580" text-anchor="middle" fill="rgba(255,255,255,0.5)" font-size="16" font-family="system-ui, sans-serif">bitdoze.com</text>
</svg>