<svg width="800" height="600" viewBox="0 0 800 600" xmlns="http://www.w3.org/2000/svg">
  <defs>
    <linearGradient id="bgGradient" x1="0%" y1="0%" x2="100%" y2="100%">
      <stop offset="0%" style="stop-color:#1a1a2e;stop-opacity:1" />
      <stop offset="100%" style="stop-color:#16213e;stop-opacity:1" />
    </linearGradient>
    <linearGradient id="lockGradient" x1="0%" y1="0%" x2="100%" y2="100%">
      <stop offset="0%" style="stop-color:#ff6b6b;stop-opacity:1" />
      <stop offset="100%" style="stop-color:#ee5a52;stop-opacity:1" />
    </linearGradient>
    <linearGradient id="terminalGradient" x1="0%" y1="0%" x2="100%" y2="100%">
      <stop offset="0%" style="stop-color:#2c3e50;stop-opacity:1" />
      <stop offset="100%" style="stop-color:#34495e;stop-opacity:1" />
    </linearGradient>
    <filter id="glow">
      <feGaussianBlur stdDeviation="3" result="coloredBlur"/>
      <feMerge>
        <feMergeNode in="coloredBlur"/>
        <feMergeNode in="SourceGraphic"/>
      </feMerge>
    </filter>
  </defs>

  <!-- Background -->
  <rect width="800" height="600" fill="url(#bgGradient)"/>

  <!-- Terminal Window Background -->
  <rect x="100" y="80" width="600" height="400" rx="10" ry="10" fill="url(#terminalGradient)" stroke="#4a90e2" stroke-width="2"/>

  <!-- Terminal Header -->
  <rect x="100" y="80" width="600" height="40" rx="10" ry="10" fill="#2c3e50"/>
  <rect x="100" y="110" width="600" height="10" fill="#2c3e50"/>

  <!-- Terminal Buttons -->
  <circle cx="125" cy="100" r="6" fill="#ff5f56"/>
  <circle cx="145" cy="100" r="6" fill="#ffbd2e"/>
  <circle cx="165" cy="100" r="6" fill="#27ca3f"/>

  <!-- Terminal Title -->
  <text x="400" y="105" text-anchor="middle" fill="#ecf0f1" font-family="Monaco, monospace" font-size="14" font-weight="bold">Linux Terminal</text>

  <!-- Lock Icon (Large, centered, with warning state) -->
  <g transform="translate(350, 200)">
    <!-- Lock Body -->
    <rect x="10" y="30" width="80" height="60" rx="8" ry="8" fill="url(#lockGradient)" stroke="#c0392b" stroke-width="3"/>

    <!-- Lock Shackle -->
    <path d="M 25 30 A 25 25 0 0 1 75 30" fill="none" stroke="url(#lockGradient)" stroke-width="6" stroke-linecap="round"/>

    <!-- Keyhole -->
    <circle cx="50" cy="55" r="8" fill="#c0392b"/>
    <rect x="46" y="55" width="8" height="15" fill="#c0392b"/>

    <!-- Warning Triangle -->
    <g transform="translate(70, 10)">
      <path d="M 15 5 L 25 20 L 5 20 Z" fill="#f39c12" stroke="#d68910" stroke-width="2"/>
      <text x="15" y="17" text-anchor="middle" fill="#2c3e50" font-family="Arial, sans-serif" font-size="12" font-weight="bold">!</text>
    </g>
  </g>

  <!-- Terminal Text Content -->
  <text x="120" y="150" fill="#e74c3c" font-family="Monaco, monospace" font-size="12" font-weight="bold">$ sudo yum install package</text>
  <text x="120" y="175" fill="#f39c12" font-family="Monaco, monospace" font-size="11">warning: waiting for transaction lock on</text>
  <text x="120" y="190" fill="#f39c12" font-family="Monaco, monospace" font-size="11">/var/lib/rpm/.rpm.lock</text>

  <!-- Solution Commands -->
  <text x="120" y="320" fill="#27ae60" font-family="Monaco, monospace" font-size="10" font-weight="bold"># Fix Commands:</text>
  <text x="120" y="340" fill="#2ecc71" font-family="Monaco, monospace" font-size="9">$ sudo pkill -9 -f 'dnf|yum|rpm'</text>
  <text x="120" y="355" fill="#2ecc71" font-family="Monaco, monospace" font-size="9">$ sudo rm -f /var/lib/rpm/.rpm.lock</text>
  <text x="120" y="370" fill="#2ecc71" font-family="Monaco, monospace" font-size="9">$ sudo rm -f /var/cache/dnf/metadata_lock.pid</text>
  <text x="120" y="385" fill="#2ecc71" font-family="Monaco, monospace" font-size="9">$ rpm --rebuilddb</text>

  <!-- Arrow pointing from problem to solution -->
  <path d="M 400 280 Q 400 290 400 300" fill="none" stroke="#3498db" stroke-width="3" marker-end="url(#arrowhead)" filter="url(#glow)"/>

  <!-- Arrow marker -->
  <defs>
    <marker id="arrowhead" markerWidth="10" markerHeight="7" refX="0" refY="3.5" orient="auto">
      <polygon points="0 0, 10 3.5, 0 7" fill="#3498db"/>
    </marker>
  </defs>

  <!-- Title -->
  <text x="400" y="40" text-anchor="middle" fill="#ecf0f1" font-family="Arial, sans-serif" font-size="24" font-weight="bold">Fix RPM Transaction Lock</text>
  <text x="400" y="65" text-anchor="middle" fill="#bdc3c7" font-family="Arial, sans-serif" font-size="16">Waiting for /var/lib/rpm/.rpm.lock</text>

  <!-- Bottom accent -->
  <rect x="0" y="580" width="800" height="20" fill="#e74c3c"/>
  <rect x="0" y="580" width="200" height="20" fill="#27ae60"/>
  <rect x="600" y="580" width="200" height="20" fill="#3498db"/>

  <!-- RPM Logo/Icon -->
  <g transform="translate(50, 500)">
    <rect x="0" y="0" width="60" height="60" rx="8" ry="8" fill="#d32f2f" stroke="#b71c1c" stroke-width="2"/>
    <text x="30" y="25" text-anchor="middle" fill="white" font-family="Arial, sans-serif" font-size="12" font-weight="bold">RPM</text>
    <text x="30" y="45" text-anchor="middle" fill="white" font-family="Arial, sans-serif" font-size="8">LOCK</text>
  </g>

  <!-- Status indicators -->
  <g transform="translate(680, 500)">
    <circle cx="15" cy="15" r="12" fill="#e74c3c"/>
    <text x="15" y="20" text-anchor="middle" fill="white" font-family="Arial, sans-serif" font-size="12" font-weight="bold">✗</text>
    <text x="15" y="45" text-anchor="middle" fill="#ecf0f1" font-family="Arial, sans-serif" font-size="10">LOCKED</text>
  </g>

  <g transform="translate(680, 450)">
    <circle cx="15" cy="15" r="12" fill="#27ae60"/>
    <text x="15" y="20" text-anchor="middle" fill="white" font-family="Arial, sans-serif" font-size="12" font-weight="bold">✓</text>
    <text x="15" y="40" text-anchor="middle" fill="#ecf0f1" font-family="Arial, sans-serif" font-size="10">FIXED</text>
  </g>
</svg>
